<svg version="1.1" preserveAspectRatio="none" xmlns="http://www.w3.org/2000/svg" width="500" height="500" viewBox="0 0 500 500"><rect width="100%" height="100%" fill="#FFFFFF" fill-opacity="1"/><svg viewBox="54.6348 106.4326 393.3651 175.973" width="333" height="148.9685002558692" x="83.5px" y="175.5157px" xmlns="http://www.w3.org/2000/svg" xmlns:xlink="http://www.w3.org/1999/xlink" preserveAspectRatio="none"><defs></defs><style>.aLgOaV3zRcolors-3 {fill:#9C8B58;fill-opacity:1;}.aLgOaV3zRcolors-4 {fill:#2C3E57;fill-opacity:1;}.aLgOaV3zRcolors-5 {fill:#C8B889;fill-opacity:1;}.aLgOaV3zRcolors-6 {fill:#9C8B58;fill-opacity:1;}.aLgOaV3zRcolors-7 {fill:#2C3E57;fill-opacity:1;}.companyName {fill:#1A1245;fill-opacity:1;}.icon1 {fill:#9C8B58;fill-opacity:1;}.icon2 {fill:#2C3E57;fill-opacity:1;}.icon3 {fill:#C8B889;fill-opacity:1;}.icon3-str {stroke:#C8B889;stroke-opacity:1;}.text {fill:#1A1245;fill-opacity:1;}</style><g opacity="1" transform="rotate(0 164.0331 267.1056)">
<svg width="174.5686" height="15.3" x="164.0331" y="267.1056" version="1.1" preserveAspectRatio="none" viewBox="3.8672 -29.8047 348.0391 30.507900000000003">
  <g transform="matrix(1 0 0 1 0 0)" class="text"><path id="id-6izo4zJp16" d="M12.11 0L3.87 0L3.87-29.80L12.19-29.80Q18.71-29.80 22.40-25.98Q26.09-22.15 26.09-14.88L26.09-14.88Q26.09-8.09 22.58-4.04Q19.06 0 12.11 0L12.11 0ZM7.66-26.56L7.66-3.20L11.60-3.20Q16.56-3.20 19.38-6.00Q22.19-8.79 22.19-14.88L22.19-14.88Q22.19-26.56 11.68-26.56L11.68-26.56L7.66-26.56Z M35.73 0L32.02 0L32.02-21.52L35.54-21.52L35.54-18.67Q36.16-20.04 37.61-21.13Q39.05-22.23 41.20-22.23L41.20-22.23Q42.84-22.23 44.17-21.68L44.17-21.68L44.17-18.36Q42.76-18.91 41.20-18.91L41.20-18.91Q38.58-18.91 37.16-16.91Q35.73-14.92 35.73-11.64L35.73-11.64L35.73 0Z M46.85-10.90L46.85-10.90Q46.85-15.98 49.63-19.10Q52.40-22.23 56.74-22.23L56.74-22.23Q61.07-22.23 63.67-19.14Q66.27-16.05 66.27-11.25L66.27-11.25Q66.27-10.63 66.19-9.53L66.19-9.53L50.56-9.53Q50.56-6.56 52.26-4.43Q53.96-2.30 56.93-2.30L56.93-2.30Q60.92-2.30 62.75-5.74L62.75-5.74L65.84-4.77Q64.82-2.38 62.54-0.84Q60.25 0.70 56.89 0.70L56.89 0.70Q52.40 0.70 49.63-2.48Q46.85-5.66 46.85-10.90ZM50.64-12.23L50.64-12.23L62.56-12.23Q62.56-15.16 60.99-17.19Q59.43-19.22 56.74-19.22L56.74-19.22Q54.00-19.22 52.36-17.13Q50.72-15.04 50.64-12.23Z M74.23-5.70L74.23-5.70Q74.23-4.30 75.40-3.32Q76.57-2.34 78.56-2.34L78.56-2.34Q81.22-2.34 83.07-4.06Q84.93-5.78 84.93-8.48L84.93-8.48L84.93-11.13Q83.37-10.74 79.85-10.20L79.85-10.20Q74.23-9.26 74.23-5.70ZM70.55-5.39L70.55-5.39Q70.55-11.45 79.73-12.85L79.73-12.85Q83.72-13.48 84.93-13.87L84.93-13.87L84.93-15.08Q84.93-16.95 83.62-18.13Q82.31-19.30 79.93-19.30L79.93-19.30Q78.05-19.30 76.31-18.42Q74.58-17.54 73.40-16.09L73.40-16.09L71.10-18.05Q72.70-19.96 75.01-21.09Q77.31-22.23 79.85-22.23L79.85-22.23Q88.56-22.23 88.56-13.63L88.56-13.63L88.56 0L85.05 0L85.05-3.24Q84.38-1.64 82.51-0.47Q80.63 0.70 78.09 0.70L78.09 0.70Q74.54 0.70 72.55-1.00Q70.55-2.70 70.55-5.39Z M99.18 0L95.46 0L95.46-21.52L99.06-21.52L99.06-18.55Q99.64-19.88 101.17-21.05Q102.69-22.23 104.96-22.23L104.96-22.23Q108.75-22.23 110.35-17.77L110.35-17.77Q110.58-18.32 111.01-18.93Q111.44-19.53 112.22-20.35Q113.00-21.17 114.31-21.70Q115.62-22.23 117.14-22.23L117.14-22.23Q123.51-22.23 123.51-13.91L123.51-13.91L123.51 0L119.84 0L119.84-13.67Q119.84-16.37 119.10-17.75Q118.35-19.14 116.32-19.14L116.32-19.14Q114.18-19.14 112.73-17.32Q111.28-15.51 111.28-12.77L111.28-12.77L111.28 0L107.69 0L107.69-13.75Q107.69-19.14 104.14-19.14L104.14-19.14Q101.83-19.14 100.50-17.42Q99.18-15.70 99.18-12.93L99.18-12.93L99.18 0Z M140.01-10.74L140.01-10.74Q140.01-15.90 142.67-19.06Q145.32-22.23 149.74-22.23L149.74-22.23Q152.75-22.23 154.84-20.47Q156.93-18.71 157.59-16.37L157.59-16.37L154.47-15.47Q153.92-16.99 152.67-18.07Q151.42-19.14 149.78-19.14L149.78-19.14Q147.00-19.14 145.38-16.76Q143.76-14.38 143.76-10.74L143.76-10.74Q143.76-6.88 145.46-4.63Q147.16-2.38 149.78-2.38L149.78-2.38Q151.57-2.38 153.00-3.57Q154.43-4.77 155.01-6.33L155.01-6.33L158.14-5.39Q157.36-2.93 155.07-1.11Q152.79 0.70 149.74 0.70L149.74 0.70Q145.40 0.70 142.71-2.40Q140.01-5.51 140.01-10.74Z M165.55-10.74L165.55-10.74Q165.55-6.80 167.31-4.59Q169.06-2.38 171.60-2.38L171.60-2.38Q174.10-2.38 175.86-4.59Q177.62-6.80 177.62-10.74L177.62-10.74Q177.62-14.77 175.86-16.95Q174.10-19.14 171.60-19.14L171.60-19.14Q169.10-19.14 167.33-16.97Q165.55-14.80 165.55-10.74ZM161.80-10.74L161.80-10.74Q161.80-15.63 164.34-18.93Q166.88-22.23 171.60-22.23L171.60-22.23Q176.25-22.23 178.81-18.93Q181.37-15.63 181.37-10.74L181.37-10.74Q181.37-8.71 180.84-6.80Q180.31-4.88 179.24-3.14Q178.17-1.41 176.17-0.35Q174.18 0.70 171.60 0.70L171.60 0.70Q169.02 0.70 167.05-0.33Q165.08-1.37 163.97-3.09Q162.85-4.80 162.33-6.74Q161.80-8.67 161.80-10.74Z M190.81 0L187.10 0L187.10-21.52L190.69-21.52L190.69-18.55Q191.28-19.88 192.80-21.05Q194.33-22.23 196.59-22.23L196.59-22.23Q200.38-22.23 201.98-17.77L201.98-17.77Q202.22-18.32 202.65-18.93Q203.08-19.53 203.86-20.35Q204.64-21.17 205.95-21.70Q207.26-22.23 208.78-22.23L208.78-22.23Q215.15-22.23 215.15-13.91L215.15-13.91L215.15 0L211.47 0L211.47-13.67Q211.47-16.37 210.73-17.75Q209.99-19.14 207.96-19.14L207.96-19.14Q205.81-19.14 204.37-17.32Q202.92-15.51 202.92-12.77L202.92-12.77L202.92 0L199.33 0L199.33-13.75Q199.33-19.14 195.77-19.14L195.77-19.14Q193.47-19.14 192.14-17.42Q190.81-15.70 190.81-12.93L190.81-12.93L190.81 0Z M220.68-10.90L220.68-10.90Q220.68-15.98 223.46-19.10Q226.23-22.23 230.57-22.23L230.57-22.23Q234.90-22.23 237.50-19.14Q240.10-16.05 240.10-11.25L240.10-11.25Q240.10-10.63 240.02-9.53L240.02-9.53L224.39-9.53Q224.39-6.56 226.09-4.43Q227.79-2.30 230.76-2.30L230.76-2.30Q234.75-2.30 236.58-5.74L236.58-5.74L239.67-4.77Q238.65-2.38 236.37-0.84Q234.08 0.70 230.72 0.70L230.72 0.70Q226.23 0.70 223.46-2.48Q220.68-5.66 220.68-10.90ZM224.47-12.23L224.47-12.23L236.39-12.23Q236.39-15.16 234.82-17.19Q233.26-19.22 230.57-19.22L230.57-19.22Q227.83-19.22 226.19-17.13Q224.55-15.04 224.47-12.23Z M244.11-4.34L244.11-4.34L246.80-5.90Q249.11-2.34 252.98-2.34L252.98-2.34Q255.16-2.34 256.49-3.16Q257.82-3.98 257.82-5.47L257.82-5.47Q257.82-6.02 257.64-6.48Q257.47-6.95 256.94-7.36Q256.41-7.77 256.04-8.03Q255.67-8.28 254.68-8.63Q253.68-8.98 253.19-9.14Q252.70-9.30 251.37-9.73L251.37-9.73Q249.97-10.16 249.01-10.61Q248.05-11.05 246.98-11.78Q245.91-12.50 245.36-13.59Q244.81-14.69 244.81-16.09L244.81-16.09Q244.81-18.83 247.06-20.53Q249.30-22.23 252.98-22.23L252.98-22.23Q255.63-22.23 257.90-20.84Q260.16-19.45 261.18-17.46L261.18-17.46L258.72-15.90Q257.82-17.27 256.34-18.22Q254.85-19.18 253.02-19.18L253.02-19.18Q250.83-19.18 249.68-18.34Q248.52-17.50 248.52-16.05L248.52-16.05Q248.52-15.20 248.97-14.51Q249.42-13.83 250.44-13.30Q251.45-12.77 252.18-12.50Q252.90-12.23 254.30-11.80L254.30-11.80Q255.75-11.37 256.82-10.90Q257.90-10.43 259.07-9.69Q260.24-8.95 260.89-7.85Q261.53-6.76 261.53-5.43L261.53-5.43Q261.53-2.85 259.27-1.07Q257.00 0.70 253.02 0.70L253.02 0.70Q250.05 0.70 247.74-0.63Q245.44-1.95 244.11-4.34Z M279.36-18.44L275.73-18.44L275.73-21.52L279.36-21.52L279.36-28.24L283.03-28.24L283.03-21.52L288.42-21.52L288.42-18.44L283.03-18.44L283.03-6.52Q283.03-4.69 283.74-3.91Q284.44-3.13 285.96-3.13L285.96-3.13L288.46-3.13L288.46 0L285.49 0Q279.36 0 279.36-6.21L279.36-6.21L279.36-18.44Z M297.51 0L293.80 0L293.80-21.52L297.32-21.52L297.32-18.67Q297.94-20.04 299.39-21.13Q300.83-22.23 302.98-22.23L302.98-22.23Q304.62-22.23 305.95-21.68L305.95-21.68L305.95-18.36Q304.55-18.91 302.98-18.91L302.98-18.91Q300.37-18.91 298.94-16.91Q297.51-14.92 297.51-11.64L297.51-11.64L297.51 0Z M309.77-7.66L309.77-7.66L309.77-21.52L313.44-21.52L313.44-8.28Q313.44-2.38 317.70-2.38L317.70-2.38Q320.28-2.38 321.68-4.45Q323.09-6.52 323.09-9.34L323.09-9.34L323.09-21.52L326.72-21.52L326.72 0L323.21 0L323.21-3.13L323.17-3.13Q322.74-1.84 321.17-0.57Q319.61 0.70 316.88 0.70L316.88 0.70Q313.83 0.70 311.80-1.35Q309.77-3.40 309.77-7.66Z M332.49-10.90L332.49-10.90Q332.49-15.98 335.27-19.10Q338.04-22.23 342.37-22.23L342.37-22.23Q346.71-22.23 349.31-19.14Q351.91-16.05 351.91-11.25L351.91-11.25Q351.91-10.63 351.83-9.53L351.83-9.53L336.20-9.53Q336.20-6.56 337.90-4.43Q339.60-2.30 342.57-2.30L342.57-2.30Q346.55-2.30 348.39-5.74L348.39-5.74L351.48-4.77Q350.46-2.38 348.18-0.84Q345.89 0.70 342.53 0.70L342.53 0.70Q338.04 0.70 335.27-2.48Q332.49-5.66 332.49-10.90ZM336.28-12.23L336.28-12.23L348.20-12.23Q348.20-15.16 346.63-17.19Q345.07-19.22 342.37-19.22L342.37-19.22Q339.64-19.22 338.00-17.13Q336.36-15.04 336.28-12.23Z"/></g>
</svg>
</g><g opacity="1" transform="rotate(0 54.6348 215.1056)">
<svg width="393.3651" height="34" x="54.6348" y="215.1056" version="1.1" preserveAspectRatio="none" viewBox="4.5703 -29.3359 347.5391 30.0391">
  <g transform="matrix(1 0 0 1 0 0)" class="companyName"><path id="id-D6z1nYkh19" d="M6.37 0L4.57 0L4.57-28.16L15-28.16Q18.87-28.16 21.19-26.00Q23.52-23.83 23.52-20.20L23.52-20.20Q23.52-16.48 21.11-14.34Q18.71-12.19 14.96-12.19L14.96-12.19L6.37-12.19L6.37 0ZM6.37-26.60L6.37-13.67L14.57-13.67Q17.85-13.67 19.75-15.35Q21.64-17.03 21.64-20.20L21.64-20.20Q21.64-23.28 19.77-24.94Q17.89-26.60 14.49-26.60L14.49-26.60L6.37-26.60Z M30.98 0L29.18 0L29.18-29.34L30.98-29.34L30.98 0Z M38.16-6.88L38.16-6.88L38.16-20.04L39.92-20.04L39.92-7.46Q39.92-0.78 45.04-0.78L45.04-0.78Q48.16-0.78 49.80-3.07Q51.45-5.35 51.45-8.52L51.45-8.52L51.45-20.04L53.16-20.04L53.16 0L51.48 0L51.48-3.95Q51.13-2.30 49.41-0.80Q47.70 0.70 44.65 0.70L44.65 0.70Q41.60 0.70 39.88-1.35Q38.16-3.40 38.16-6.88Z M61.33-18.52L57.54-18.52L57.54-20.04L61.33-20.04L61.33-26.80L63.16-26.80L63.16-20.04L68.55-20.04L68.55-18.52L63.16-18.52L63.16-5.51Q63.16-3.36 63.98-2.42Q64.80-1.48 66.64-1.52L66.64-1.52L68.55-1.52L68.55 0L66.45 0Q63.98 0.04 62.66-1.25Q61.33-2.54 61.33-5.23L61.33-5.23L61.33-18.52Z M74.02-10.04L74.02-10.04Q74.02-5.94 75.96-3.36Q77.89-0.78 81.02-0.78L81.02-0.78Q84.10-0.78 86.05-3.38Q88.01-5.98 88.01-10.04L88.01-10.04Q88.01-14.18 86.02-16.70Q84.02-19.22 81.02-19.22L81.02-19.22Q78.01-19.22 76.02-16.72Q74.02-14.22 74.02-10.04ZM72.23-10.04L72.23-10.04Q72.23-14.69 74.57-17.70Q76.91-20.70 81.02-20.70L81.02-20.70Q85.04-20.70 87.42-17.70Q89.80-14.69 89.80-10.04L89.80-10.04Q89.80-7.97 89.26-6.09Q88.71-4.22 87.68-2.68Q86.64-1.13 84.92-0.21Q83.20 0.70 81.02 0.70L81.02 0.70Q76.76 0.70 74.49-2.46Q72.23-5.63 72.23-10.04Z M123.63 0L106.13 0L106.13-28.16L123.16-28.16L123.16-26.60L107.93-26.60L107.93-15.39L121.72-15.39L121.72-13.87L107.93-13.87L107.93-1.56L123.63-1.56L123.63 0Z M130.51 0L128.75 0L128.75-20.04L130.47-20.04L130.47-15.90L130.51-15.90Q130.86-17.50 132.79-19.10Q134.73-20.70 137.50-20.70L137.50-20.70Q138.67-20.70 139.71-20.37Q140.74-20.04 141.74-19.26Q142.73-18.48 143.32-16.88Q143.91-15.27 143.91-12.97L143.91-12.97L143.91 0L142.11 0L142.11-12.62Q142.11-19.22 137.15-19.22L137.15-19.22Q134.57-19.22 132.54-17.13Q130.51-15.04 130.51-12.19L130.51-12.19L130.51 0Z M151.68-18.52L147.89-18.52L147.89-20.04L151.68-20.04L151.68-26.80L153.52-26.80L153.52-20.04L158.91-20.04L158.91-18.52L153.52-18.52L153.52-5.51Q153.52-3.36 154.34-2.42Q155.16-1.48 156.99-1.52L156.99-1.52L158.91-1.52L158.91 0L156.80 0Q154.34 0.04 153.01-1.25Q151.68-2.54 151.68-5.23L151.68-5.23L151.68-18.52Z M162.58-10.16L162.58-10.16Q162.58-14.80 164.98-17.75Q167.38-20.70 171.37-20.70L171.37-20.70Q175.39-20.70 177.70-17.79Q180-14.88 180-10.66L180-10.66Q180-10.43 179.98-10.08Q179.96-9.73 179.96-9.49L179.96-9.49L164.38-9.49Q164.38-5.94 166.27-3.36Q168.16-0.78 171.48-0.78L171.48-0.78Q173.59-0.78 175.33-1.86Q177.07-2.93 177.97-4.57L177.97-4.57L179.49-4.02Q178.44-1.91 176.41-0.61Q174.38 0.70 171.48 0.70L171.48 0.70Q167.38 0.70 164.98-2.32Q162.58-5.35 162.58-10.16ZM164.41-10.86L164.41-10.86L178.20-10.86Q178.20-14.30 176.33-16.76Q174.45-19.22 171.37-19.22L171.37-19.22Q168.16-19.22 166.33-16.70Q164.49-14.18 164.41-10.86Z M187.23 0L185.47 0L185.47-20.04L187.15-20.04L187.15-16.56Q187.70-18.09 189.18-19.39Q190.66-20.70 193.13-20.70L193.13-20.70Q194.88-20.70 196.13-20.12L196.13-20.12L196.13-18.52Q194.73-19.14 193.13-19.14L193.13-19.14Q190.39-19.14 188.81-17.09Q187.23-15.04 187.23-11.84L187.23-11.84L187.23 0Z M201.45-18.52L197.66-18.52L197.66-20.04L201.45-20.04L201.45-26.80L203.28-26.80L203.28-20.04L208.67-20.04L208.67-18.52L203.28-18.52L203.28-5.51Q203.28-3.36 204.10-2.42Q204.92-1.48 206.76-1.52L206.76-1.52L208.67-1.52L208.67 0L206.56 0Q204.10 0.04 202.77-1.25Q201.45-2.54 201.45-5.23L201.45-5.23L201.45-18.52Z M213.98-4.77L213.98-4.77Q213.98-3.13 215.37-1.95Q216.76-0.78 219.26-0.78L219.26-0.78Q222.30-0.78 224.53-2.75Q226.76-4.73 226.76-7.81L226.76-7.81L226.76-11.41Q224.84-10.74 220.59-10.08L220.59-10.08Q213.98-9.02 213.98-4.77ZM212.19-4.69L212.19-4.69Q212.19-7.38 214.16-9.08Q216.13-10.78 220.55-11.45Q224.96-12.11 226.76-12.85L226.76-12.85L226.76-13.91Q226.76-16.25 225.18-17.75Q223.59-19.26 220.74-19.26L220.74-19.26Q218.87-19.26 217.15-18.38Q215.43-17.50 214.26-15.98L214.26-15.98L213.05-16.88Q214.30-18.55 216.33-19.63Q218.36-20.70 220.70-20.70L220.70-20.70Q224.69-20.70 226.60-18.71Q228.52-16.72 228.52-13.44L228.52-13.44L228.52 0L226.80 0L226.80-3.98Q226.09-2.11 223.98-0.70Q221.88 0.70 219.10 0.70L219.10 0.70Q215.90 0.70 214.04-0.82Q212.19-2.34 212.19-4.69Z M238.55-25.35L235.55-25.35L235.55-28.59L238.55-28.59L238.55-25.35ZM237.97 0L236.25 0L236.25-20.04L237.97-20.04L237.97 0Z M247.70 0L245.94 0L245.94-20.04L247.66-20.04L247.66-15.90L247.70-15.90Q248.05-17.50 249.98-19.10Q251.91-20.70 254.69-20.70L254.69-20.70Q255.86-20.70 256.89-20.37Q257.93-20.04 258.93-19.26Q259.92-18.48 260.51-16.88Q261.09-15.27 261.09-12.97L261.09-12.97L261.09 0L259.30 0L259.30-12.62Q259.30-19.22 254.34-19.22L254.34-19.22Q251.76-19.22 249.73-17.13Q247.70-15.04 247.70-12.19L247.70-12.19L247.70 0Z M269.73 0L267.97 0L267.97-20.04L269.69-20.04L269.69-16.45L269.73-16.45Q270.31-18.09 271.88-19.39Q273.44-20.70 275.90-20.70L275.90-20.70Q280.23-20.70 281.25-15.63L281.25-15.63Q281.33-16.09 281.74-16.84Q282.15-17.58 282.91-18.50Q283.67-19.41 285.06-20.06Q286.45-20.70 288.13-20.70L288.13-20.70Q291.05-20.70 292.40-18.79Q293.75-16.88 293.75-13.01L293.75-13.01L293.75 0L291.95 0L291.95-12.73Q291.95-15.94 291.07-17.58Q290.20-19.22 287.70-19.22L287.70-19.22Q285.23-19.22 283.50-17.21Q281.76-15.20 281.76-11.99L281.76-11.99L281.76 0L279.96 0L279.96-12.73Q279.96-19.22 275.59-19.22L275.59-19.22Q273.01-19.22 271.37-17.29Q269.73-15.35 269.73-12.27L269.73-12.27L269.73 0Z M299.06-10.16L299.06-10.16Q299.06-14.80 301.46-17.75Q303.87-20.70 307.85-20.70L307.85-20.70Q311.88-20.70 314.18-17.79Q316.48-14.88 316.48-10.66L316.48-10.66Q316.48-10.43 316.46-10.08Q316.45-9.73 316.45-9.49L316.45-9.49L300.86-9.49Q300.86-5.94 302.75-3.36Q304.65-0.78 307.97-0.78L307.97-0.78Q310.08-0.78 311.82-1.86Q313.55-2.93 314.45-4.57L314.45-4.57L315.98-4.02Q314.92-1.91 312.89-0.61Q310.86 0.70 307.97 0.70L307.97 0.70Q303.87 0.70 301.46-2.32Q299.06-5.35 299.06-10.16ZM300.90-10.86L300.90-10.86L314.69-10.86Q314.69-14.30 312.81-16.76Q310.94-19.22 307.85-19.22L307.85-19.22Q304.65-19.22 302.81-16.70Q300.98-14.18 300.90-10.86Z M323.71 0L321.95 0L321.95-20.04L323.67-20.04L323.67-15.90L323.71-15.90Q324.06-17.50 326.00-19.10Q327.93-20.70 330.70-20.70L330.70-20.70Q331.88-20.70 332.91-20.37Q333.95-20.04 334.94-19.26Q335.94-18.48 336.52-16.88Q337.11-15.27 337.11-12.97L337.11-12.97L337.11 0L335.31 0L335.31-12.62Q335.31-19.22 330.35-19.22L330.35-19.22Q327.77-19.22 325.74-17.13Q323.71-15.04 323.71-12.19L323.71-12.19L323.71 0Z M344.88-18.52L341.09-18.52L341.09-20.04L344.88-20.04L344.88-26.80L346.72-26.80L346.72-20.04L352.11-20.04L352.11-18.52L346.72-18.52L346.72-5.51Q346.72-3.36 347.54-2.42Q348.36-1.48 350.20-1.52L350.20-1.52L352.11-1.52L352.11 0L350 0Q347.54 0.04 346.21-1.25Q344.88-2.54 344.88-5.23L344.88-5.23L344.88-18.52Z"/></g>
</svg>
</g><g opacity="1" transform="rotate(0 211.9808 106.4326)">
<svg width="78.6731" height="78.673" x="211.9808" y="106.4326" version="1.1" preserveAspectRatio="none" viewBox="3 3 24 24">
  <g transform="matrix(1 0 0 1 0 0)" class="icon1"><g transform="translate(-330 -320)"><g xmlns="http://www.w3.org/2000/svg" xmlns:xlink="http://www.w3.org/1999/xlink"><rect x="333" y="323" width="11" height="1"></rect><rect x="333" y="325" width="11" height="1"></rect><rect x="333" y="327" width="11" height="1"></rect><rect x="333" y="329" width="11" height="1"></rect><rect x="333" y="331" width="11" height="1"></rect><rect x="333" y="333" width="11" height="1"></rect><rect x="343" y="336" width="1" height="11"></rect><rect x="341" y="336" width="1" height="11"></rect><rect x="339" y="336" width="1" height="11"></rect><rect x="337" y="336" width="1" height="11"></rect><rect x="335" y="336" width="1" height="11"></rect><rect x="333" y="336" width="1" height="11"></rect><rect x="346" y="336" width="11" height="1"></rect><rect x="346" y="338" width="11" height="1"></rect><rect x="346" y="340" width="11" height="1"></rect><rect x="346" y="342" width="11" height="1"></rect><rect x="346" y="344" width="11" height="1"></rect><rect x="346" y="346" width="11" height="1"></rect><rect x="356" y="323" width="1" height="11"></rect><rect x="354" y="323" width="1" height="11"></rect><rect x="352" y="323" width="1" height="11"></rect><rect x="350" y="323" width="1" height="11"></rect><rect x="348" y="323" width="1" height="11"></rect><rect x="346" y="323" width="1" height="11"></rect></g></g></g>
</svg>
</g></svg></svg>