<svg version="1.1" preserveAspectRatio="none" xmlns="http://www.w3.org/2000/svg" width="500" height="500" viewBox="0 0 500 500"><rect width="100%" height="100%" fill="#FFFFFF" fill-opacity="1"/><svg viewBox="2.9966 99.1666 490.3235 110" width="333" height="74.70578097929224" x="83.5px" y="212.6471px" xmlns="http://www.w3.org/2000/svg" xmlns:xlink="http://www.w3.org/1999/xlink" preserveAspectRatio="none"><defs></defs><style>.companyName {fill:#182145;fill-opacity:1;}.icon1 {fill:#182145;fill-opacity:1;}.icon2 {fill:#E35B34;fill-opacity:1;}.icon3 {fill:#E3D454;fill-opacity:1;}.icon3-str {stroke:#E3D454;stroke-opacity:1;}.text {fill:#182145;fill-opacity:1;}</style><g opacity="1" transform="rotate(0 2.9966 99.1666)">
<svg width="104.6292" height="110" x="2.9966" y="99.1666" version="1.1" preserveAspectRatio="none" viewBox="5.51182222366333 4.53000020980835 78.5850601196289 82.61900329589844">
  <g transform="matrix(1 0 0 1 0 0)" class="icon1"><path d="M80.328,26.028L55.082,6.485c-1.581-1.224-3.896-1.955-6.191-1.955c-1.256,0-2.46,0.221-3.482,0.64  L15.862,17.261c-2.974,1.218-5.543,4.537-5.976,7.72L5.583,56.615C5.149,59.8,6.739,63.684,9.28,65.65l25.245,19.544  c1.582,1.225,3.896,1.955,6.192,1.955c1.256,0,2.46-0.221,3.482-0.64l29.547-12.091c2.974-1.217,5.543-4.536,5.977-7.721  l4.303-31.634C84.459,31.881,82.869,27.997,80.328,26.028z M52.504,33.413l-3.185,23.426L30.743,42.318l18.784-7.688L52.504,33.413z   M18.009,22.508l29.547-12.091c0.342-0.14,0.815-0.217,1.334-0.217c1.034,0,2.128,0.309,2.722,0.769l3.691,2.857L53.597,26.84  L13.1,43.412l2.403-17.667C15.664,24.563,16.905,22.959,18.009,22.508z M42.052,81.263c-0.342,0.141-0.816,0.218-1.335,0.218  c-1.034,0-2.127-0.31-2.721-0.769L12.75,61.168c-0.943-0.73-1.711-2.607-1.551-3.789l1.018-7.48l12.325-5.043l25.05,19.393  l11.696,9.144L42.052,81.263z M78.408,34.3l-4.303,31.633c-0.161,1.183-1.402,2.786-2.506,3.238l-4.269,1.747l-12.517-9.784  l5.68-43.29l16.363,12.667C77.801,31.242,78.569,33.118,78.408,34.3z"></path></g>
</svg>
</g><g opacity="1" transform="rotate(0 127.6258 99.1666)">
<svg width="365.6943" height="70" x="127.6258" y="99.1666" version="1.1" preserveAspectRatio="none" viewBox="3.32 -28.48 357.71999999999997 68.48">
  <g transform="matrix(1 0 0 1 0 0)" class="companyName"><path id="id-D6z1nYkh18" d="M15.44-28Q19.16-28 21.90-26.76Q24.64-25.52 26.12-23.24Q27.60-20.96 27.60-17.84L27.60-17.84Q27.60-14.76 26.12-12.46Q24.64-10.16 21.90-8.94Q19.16-7.72 15.44-7.72L15.44-7.72L9.80-7.72L9.80 0L3.32 0L3.32-28L15.44-28ZM15.08-13Q18-13 19.52-14.26Q21.04-15.52 21.04-17.84L21.04-17.84Q21.04-20.20 19.52-21.46Q18-22.72 15.08-22.72L15.08-22.72L9.80-22.72L9.80-13L15.08-13Z M32.20 0L32.20-28L38.68-28L38.68-5.28L52.72-5.28L52.72 0L32.20 0Z M68.44 0.48Q62.44 0.48 59.10-2.84Q55.76-6.16 55.76-12.32L55.76-12.32L55.76-28L62.24-28L62.24-12.56Q62.24-5.04 68.48-5.04L68.48-5.04Q71.52-5.04 73.12-6.86Q74.72-8.68 74.72-12.56L74.72-12.56L74.72-28L81.12-28L81.12-12.32Q81.12-6.16 77.78-2.84Q74.44 0.48 68.44 0.48L68.44 0.48Z M92.84 0L92.84-22.72L83.88-22.72L83.88-28L108.28-28L108.28-22.72L99.32-22.72L99.32 0L92.84 0Z M124.92 0.48Q120.56 0.48 117.06-1.40Q113.56-3.28 111.58-6.58Q109.60-9.88 109.60-14L109.60-14Q109.60-18.12 111.58-21.42Q113.56-24.72 117.06-26.60Q120.56-28.48 124.92-28.48L124.92-28.48Q129.28-28.48 132.76-26.60Q136.24-24.72 138.24-21.42Q140.24-18.12 140.24-14L140.24-14Q140.24-9.88 138.24-6.58Q136.24-3.28 132.76-1.40Q129.28 0.48 124.92 0.48L124.92 0.48ZM124.92-5.04Q127.40-5.04 129.40-6.18Q131.40-7.32 132.54-9.36Q133.68-11.40 133.68-14L133.68-14Q133.68-16.60 132.54-18.64Q131.40-20.68 129.40-21.82Q127.40-22.96 124.92-22.96L124.92-22.96Q122.44-22.96 120.44-21.82Q118.44-20.68 117.30-18.64Q116.16-16.60 116.16-14L116.16-14Q116.16-11.40 117.30-9.36Q118.44-7.32 120.44-6.18Q122.44-5.04 124.92-5.04L124.92-5.04Z M9.76 34.80L25 34.80L25 40L3.32 40L3.32 12L24.48 12L24.48 17.20L9.76 17.20L9.76 23.28L22.76 23.28L22.76 28.32L9.76 28.32L9.76 34.80Z M49.44 12L55.84 12L55.84 40L50.52 40L36.56 23L36.56 40L30.16 40L30.16 12L35.52 12L49.44 29L49.44 12Z M68.28 40L68.28 17.28L59.32 17.28L59.32 12L83.72 12L83.72 17.28L74.76 17.28L74.76 40L68.28 40Z M93.64 34.80L108.88 34.80L108.88 40L87.20 40L87.20 12L108.36 12L108.36 17.20L93.64 17.20L93.64 23.28L106.64 23.28L106.64 28.32L93.64 28.32L93.64 34.80Z M138.84 40L131.88 40L126.48 32.20L126.16 32.20L120.52 32.20L120.52 40L114.04 40L114.04 12L126.16 12Q129.88 12 132.62 13.24Q135.36 14.48 136.84 16.76Q138.32 19.04 138.32 22.16L138.32 22.16Q138.32 25.28 136.82 27.54Q135.32 29.80 132.56 31L132.56 31L138.84 40ZM131.76 22.16Q131.76 19.80 130.24 18.54Q128.72 17.28 125.80 17.28L125.80 17.28L120.52 17.28L120.52 27.04L125.80 27.04Q128.72 27.04 130.24 25.76Q131.76 24.48 131.76 22.16L131.76 22.16Z M148.84 40L148.84 17.28L139.88 17.28L139.88 12L164.28 12L164.28 17.28L155.32 17.28L155.32 40L148.84 40Z M187.28 40L184.80 34L171.80 34L169.32 40L162.68 40L175.16 12L181.56 12L194.08 40L187.28 40ZM173.88 29.08L182.76 29.08L178.32 18.36L173.88 29.08Z M197 40L197 12L203.48 12L203.48 40L197 40Z M229.40 12L235.80 12L235.80 40L230.48 40L216.52 23L216.52 40L210.12 40L210.12 12L215.48 12L229.40 29L229.40 12Z M274 40L267.92 40L267.88 23.20L259.64 37.04L256.72 37.04L248.52 23.56L248.52 40L242.44 40L242.44 12L247.80 12L258.28 29.40L268.60 12L273.92 12L274 40Z M287.08 34.80L302.32 34.80L302.32 40L280.64 40L280.64 12L301.80 12L301.80 17.20L287.08 17.20L287.08 23.28L300.08 23.28L300.08 28.32L287.08 28.32L287.08 34.80Z M326.76 12L333.16 12L333.16 40L327.84 40L313.88 23L313.88 40L307.48 40L307.48 12L312.84 12L326.76 29L326.76 12Z M345.60 40L345.60 17.28L336.64 17.28L336.64 12L361.04 12L361.04 17.28L352.08 17.28L352.08 40L345.60 40Z"/></g>
</svg>
</g><g opacity="1" transform="rotate(0 127.6258 189.1666)">
<svg width="277.588" height="20" x="127.6258" y="189.1666" version="1.1" preserveAspectRatio="none" viewBox="4.2 -28 392.04 28.240000000000002">
  <g transform="matrix(1 0 0 1 0 0)" class="text"><path id="id-D-YM9nyY416" d="M4.20 0L4.20-28L16-28Q20.44-28 23.88-26.24Q27.32-24.48 29.22-21.30Q31.12-18.12 31.12-14L31.12-14Q31.12-9.88 29.22-6.70Q27.32-3.52 23.88-1.76Q20.44 0 16 0L16 0L4.20 0ZM8.20-3.48L15.76-3.48Q19.16-3.48 21.74-4.80Q24.32-6.12 25.72-8.50Q27.12-10.88 27.12-14L27.12-14Q27.12-17.12 25.72-19.50Q24.32-21.88 21.74-23.20Q19.16-24.52 15.76-24.52L15.76-24.52L8.20-24.52L8.20-3.48Z M41.56-17.64Q42.56-19.48 44.52-20.44Q46.48-21.40 49.28-21.40L49.28-21.40L49.28-17.68Q48.96-17.72 48.40-17.72L48.40-17.72Q45.28-17.72 43.50-15.86Q41.72-14 41.72-10.56L41.72-10.56L41.72 0L37.88 0L37.88-21.20L41.56-21.20L41.56-17.64Z M74.16-10.48Q74.16-10.04 74.08-9.32L74.08-9.32L56.88-9.32Q57.24-6.52 59.34-4.82Q61.44-3.12 64.56-3.12L64.56-3.12Q68.36-3.12 70.68-5.68L70.68-5.68L72.80-3.20Q71.36-1.52 69.22-0.64Q67.08 0.24 64.44 0.24L64.44 0.24Q61.08 0.24 58.48-1.14Q55.88-2.52 54.46-5Q53.04-7.48 53.04-10.60L53.04-10.60Q53.04-13.68 54.42-16.16Q55.80-18.64 58.22-20.02Q60.64-21.40 63.68-21.40L63.68-21.40Q66.72-21.40 69.10-20.02Q71.48-18.64 72.82-16.16Q74.16-13.68 74.16-10.48L74.16-10.48ZM63.68-18.16Q60.92-18.16 59.06-16.48Q57.20-14.80 56.88-12.08L56.88-12.08L70.48-12.08Q70.16-14.76 68.30-16.46Q66.44-18.16 63.68-18.16L63.68-18.16Z M87.80-21.40Q92.20-21.40 94.54-19.24Q96.88-17.08 96.88-12.80L96.88-12.80L96.88 0L93.24 0L93.24-2.80Q92.28-1.32 90.50-0.54Q88.72 0.24 86.28 0.24L86.28 0.24Q82.72 0.24 80.58-1.48Q78.44-3.20 78.44-6L78.44-6Q78.44-8.80 80.48-10.50Q82.52-12.20 86.96-12.20L86.96-12.20L93.04-12.20L93.04-12.96Q93.04-15.44 91.60-16.76Q90.16-18.08 87.36-18.08L87.36-18.08Q85.48-18.08 83.68-17.46Q81.88-16.84 80.64-15.80L80.64-15.80L79.04-18.68Q80.68-20 82.96-20.70Q85.24-21.40 87.80-21.40L87.80-21.40ZM86.92-2.72Q89.12-2.72 90.72-3.70Q92.32-4.68 93.04-6.48L93.04-6.48L93.04-9.44L87.12-9.44Q82.24-9.44 82.24-6.16L82.24-6.16Q82.24-4.56 83.48-3.64Q84.72-2.72 86.92-2.72L86.92-2.72Z M131.72-21.40Q135.72-21.40 138.06-19.08Q140.40-16.76 140.40-12.20L140.40-12.20L140.40 0L136.56 0L136.56-11.76Q136.56-14.84 135.14-16.40Q133.72-17.96 131.08-17.96L131.08-17.96Q128.16-17.96 126.44-16.14Q124.72-14.32 124.72-10.92L124.72-10.92L124.72 0L120.88 0L120.88-11.76Q120.88-14.84 119.46-16.40Q118.04-17.96 115.40-17.96L115.40-17.96Q112.48-17.96 110.76-16.14Q109.04-14.32 109.04-10.92L109.04-10.92L109.04 0L105.20 0L105.20-21.20L108.88-21.20L108.88-18.04Q110.04-19.68 111.92-20.54Q113.80-21.40 116.20-21.40L116.20-21.40Q118.68-21.40 120.60-20.40Q122.52-19.40 123.56-17.48L123.56-17.48Q124.76-19.32 126.90-20.36Q129.04-21.40 131.72-21.40L131.72-21.40Z M169.88 0.24Q166.64 0.24 164.10-1.16Q161.56-2.56 160.12-5.02Q158.68-7.48 158.68-10.60L158.68-10.60Q158.68-13.72 160.12-16.18Q161.56-18.64 164.10-20.02Q166.64-21.40 169.88-21.40L169.88-21.40Q172.76-21.40 175.02-20.24Q177.28-19.08 178.52-16.88L178.52-16.88L175.60-15Q174.60-16.52 173.12-17.28Q171.64-18.04 169.84-18.04L169.84-18.04Q167.76-18.04 166.10-17.12Q164.44-16.20 163.50-14.50Q162.56-12.80 162.56-10.60L162.56-10.60Q162.56-8.36 163.50-6.66Q164.44-4.96 166.10-4.04Q167.76-3.12 169.84-3.12L169.84-3.12Q171.64-3.12 173.12-3.88Q174.60-4.64 175.60-6.16L175.60-6.16L178.52-4.32Q177.28-2.12 175.02-0.94Q172.76 0.24 169.88 0.24L169.88 0.24Z M193.44 0.24Q190.28 0.24 187.76-1.16Q185.24-2.56 183.82-5.02Q182.40-7.48 182.40-10.60L182.40-10.60Q182.40-13.72 183.82-16.18Q185.24-18.64 187.76-20.02Q190.28-21.40 193.44-21.40L193.44-21.40Q196.60-21.40 199.10-20.02Q201.60-18.64 203.02-16.18Q204.44-13.72 204.44-10.60L204.44-10.60Q204.44-7.48 203.02-5.02Q201.60-2.56 199.10-1.16Q196.60 0.24 193.44 0.24L193.44 0.24ZM193.44-3.12Q195.48-3.12 197.10-4.06Q198.72-5 199.64-6.70Q200.56-8.40 200.56-10.60L200.56-10.60Q200.56-12.80 199.64-14.50Q198.72-16.20 197.10-17.12Q195.48-18.04 193.44-18.04L193.44-18.04Q191.40-18.04 189.78-17.12Q188.16-16.20 187.22-14.50Q186.28-12.80 186.28-10.60L186.28-10.60Q186.28-8.40 187.22-6.70Q188.16-5 189.78-4.06Q191.40-3.12 193.44-3.12L193.44-3.12Z M237.48-21.40Q241.48-21.40 243.82-19.08Q246.16-16.76 246.16-12.20L246.16-12.20L246.16 0L242.32 0L242.32-11.76Q242.32-14.84 240.90-16.40Q239.48-17.96 236.84-17.96L236.84-17.96Q233.92-17.96 232.20-16.14Q230.48-14.32 230.48-10.92L230.48-10.92L230.48 0L226.64 0L226.64-11.76Q226.64-14.84 225.22-16.40Q223.80-17.96 221.16-17.96L221.16-17.96Q218.24-17.96 216.52-16.14Q214.80-14.32 214.80-10.92L214.80-10.92L214.80 0L210.96 0L210.96-21.20L214.64-21.20L214.64-18.04Q215.80-19.68 217.68-20.54Q219.56-21.40 221.96-21.40L221.96-21.40Q224.44-21.40 226.36-20.40Q228.28-19.40 229.32-17.48L229.32-17.48Q230.52-19.32 232.66-20.36Q234.80-21.40 237.48-21.40L237.48-21.40Z M273.72-10.48Q273.72-10.04 273.64-9.32L273.64-9.32L256.44-9.32Q256.80-6.52 258.90-4.82Q261-3.12 264.12-3.12L264.12-3.12Q267.92-3.12 270.24-5.68L270.24-5.68L272.36-3.20Q270.92-1.52 268.78-0.64Q266.64 0.24 264 0.24L264 0.24Q260.64 0.24 258.04-1.14Q255.44-2.52 254.02-5Q252.60-7.48 252.60-10.60L252.60-10.60Q252.60-13.68 253.98-16.16Q255.36-18.64 257.78-20.02Q260.20-21.40 263.24-21.40L263.24-21.40Q266.28-21.40 268.66-20.02Q271.04-18.64 272.38-16.16Q273.72-13.68 273.72-10.48L273.72-10.48ZM263.24-18.16Q260.48-18.16 258.62-16.48Q256.76-14.80 256.44-12.08L256.44-12.08L270.04-12.08Q269.72-14.76 267.86-16.46Q266-18.16 263.24-18.16L263.24-18.16Z M286.32 0.24Q283.72 0.24 281.32-0.46Q278.92-1.16 277.56-2.24L277.56-2.24L279.16-5.28Q280.56-4.28 282.56-3.68Q284.56-3.08 286.60-3.08L286.60-3.08Q291.64-3.08 291.64-5.96L291.64-5.96Q291.64-6.92 290.96-7.48Q290.28-8.04 289.26-8.30Q288.24-8.56 286.36-8.88L286.36-8.88Q283.80-9.28 282.18-9.80Q280.56-10.32 279.40-11.56Q278.24-12.80 278.24-15.04L278.24-15.04Q278.24-17.92 280.64-19.66Q283.04-21.40 287.08-21.40L287.08-21.40Q289.20-21.40 291.32-20.88Q293.44-20.36 294.80-19.48L294.80-19.48L293.16-16.44Q290.56-18.12 287.04-18.12L287.04-18.12Q284.60-18.12 283.32-17.32Q282.04-16.52 282.04-15.20L282.04-15.20Q282.04-14.16 282.76-13.56Q283.48-12.96 284.54-12.68Q285.60-12.40 287.52-12.04L287.52-12.04Q290.08-11.60 291.66-11.10Q293.24-10.60 294.36-9.40Q295.48-8.20 295.48-6.04L295.48-6.04Q295.48-3.16 293.02-1.46Q290.56 0.24 286.32 0.24L286.32 0.24Z M324.16-4L325.36-1.24Q324.52-0.52 323.28-0.14Q322.04 0.24 320.72 0.24L320.72 0.24Q317.52 0.24 315.76-1.48Q314.00-3.20 314.00-6.40L314.00-6.40L314.00-18.04L310.40-18.04L310.40-21.20L314.00-21.20L314.00-25.84L317.84-25.84L317.84-21.20L323.92-21.20L323.92-18.04L317.84-18.04L317.84-6.56Q317.84-4.84 318.70-3.92Q319.56-3 321.16-3L321.16-3Q322.92-3 324.16-4L324.16-4Z M334.88-17.64Q335.88-19.48 337.84-20.44Q339.80-21.40 342.60-21.40L342.60-21.40L342.60-17.68Q342.28-17.72 341.72-17.72L341.72-17.72Q338.60-17.72 336.82-15.86Q335.04-14 335.04-10.56L335.04-10.56L335.04 0L331.20 0L331.20-21.20L334.88-21.20L334.88-17.64Z M364.72-21.20L368.56-21.20L368.56 0L364.92 0L364.92-3.20Q363.76-1.56 361.86-0.66Q359.96 0.24 357.72 0.24L357.72 0.24Q353.48 0.24 351.04-2.10Q348.60-4.44 348.60-9L348.60-9L348.60-21.20L352.44-21.20L352.44-9.44Q352.44-6.36 353.92-4.78Q355.40-3.20 358.16-3.20L358.16-3.20Q361.20-3.20 362.96-5.04Q364.72-6.88 364.72-10.24L364.72-10.24L364.72-21.20Z M396.24-10.48Q396.24-10.04 396.16-9.32L396.16-9.32L378.96-9.32Q379.32-6.52 381.42-4.82Q383.52-3.12 386.64-3.12L386.64-3.12Q390.44-3.12 392.76-5.68L392.76-5.68L394.88-3.20Q393.44-1.52 391.30-0.64Q389.16 0.24 386.52 0.24L386.52 0.24Q383.16 0.24 380.56-1.14Q377.96-2.52 376.54-5Q375.12-7.48 375.12-10.60L375.12-10.60Q375.12-13.68 376.50-16.16Q377.88-18.64 380.30-20.02Q382.72-21.40 385.76-21.40L385.76-21.40Q388.80-21.40 391.18-20.02Q393.56-18.64 394.90-16.16Q396.24-13.68 396.24-10.48L396.24-10.48ZM385.76-18.16Q383.00-18.16 381.14-16.48Q379.28-14.80 378.96-12.08L378.96-12.08L392.56-12.08Q392.24-14.76 390.38-16.46Q388.52-18.16 385.76-18.16L385.76-18.16Z"/></g>
</svg>
</g></svg></svg>